# xmcd CD database file
#
# Track frame offsets:
#	150
#	15555
#	33915
#	45958
#	60667
#	72461
#	78129
#	93511
#	108030
#	121988
#	134931
#	149868
#	167123
#	185582
#
# Disc length: 2489 seconds
#
# Revision: 0
# Processed by: cddbd v1.5.2PL0 Copyright (c) Steve Scherf et al.
# Submitted via: CDex 1.51
#
DISCID=c309b70e
DTITLE=STEVE WARINER - GUITAR LABORATORY
DYEAR=2011
DGENRE=Country
TTITLE0=TELE KINESIS
TTITLE1=A GROOVE
TTITLE2=GOODY 2 SHOES
TTITLE3=KENTUCKIANA
TTITLE4=SUGARFOOT RAG
TTITLE5=CRAFTY
TTITLE6=I WILL NEVER FORGET YOU
TTITLE7=PALS
TTITLE8=WAIKIKI
TTITLE9=UP THE RED HILL
TTITLE10=PHILLIS AND RAMONA
TTITLE11=WHITE DOVE
TTITLE12=STING RAY
TTITLE13=STEVE WARINER
EXTD=YEAR: 2011
EXTT0=
EXTT1=
EXTT2=
EXTT3=
EXTT4=
EXTT5=
EXTT6=
EXTT7=
EXTT8=
EXTT9=
EXTT10=
EXTT11=
EXTT12=
EXTT13=
PLAYORDER=
